<svg viewBox="8.64 153.44 90.4 90.4" xmlns:xlink="http://www.w3.org/1999/xlink" xmlns="http://www.w3.org/2000/svg" style="max-height: 500px" width="90.4" height="90.4"><defs><radialGradient fy="20%" fx="10%" r="100%" cy="20%" cx="10%" id="gradient-15">       <stop stop-color="rgba(0, 95, 104, 1)" offset="0%"/>       <stop stop-color="rgba(15, 156, 168, 1)" offset="90%"/>     </radialGradient></defs>
<rect fill="#ffffff" height="100%" width="100%" data-name="background"/><g style="opacity:0.040000010281801224;" transform="translate(10, 320) scale(1.5) rotate(-45)" stroke="#ffffff" class="watermark-logodesign" data-name="watermark"><path d="M22.92,19.2q3.04,1.68,4.8,4.7t1.76,6.78t-1.76,6.78t-4.8,4.7t-6.68,1.68t-6.7-1.68t-4.84-4.7t-1.78-6.78t1.78-6.78t4.84-4.7t6.7-1.68t6.68,1.68z M11.14,21.74q-2.26,1.3-3.54,3.62t-1.28,5.32t1.28,5.32t3.54,3.6t5.1,1.28t5.08-1.28t3.52-3.6t1.28-5.32t-1.28-5.32t-3.54-3.62t-5.06-1.3q-2.84,0-5.1,1.3z M21.4,24.76l-1.8,2.32q-0.72-0.56-1.4-0.78t-1.48-0.22q-1.44,0-2.3,1.1t-0.86,3.46q0,2.32,0.82,3.44t2.26,1.12q0.96,0,1.74-0.3t1.54-0.9l1.64,2.44q-2.24,2.04-5.2,2.04q-3.2,0-5.08-2.04t-1.88-5.8q0-2.4,0.9-4.16t2.48-2.7t3.54-0.94q2.92,0,5.08,1.92z M41.2,20.32l0,22.96l10.96,0l-0.64,4.72l-16.2,0l0-27.68l5.88,0z M71.92,29.14q2.68,2.98,2.68,8.26q0,3.36-1.22,5.9t-3.52,3.94t-5.42,1.4q-4.76,0-7.46-2.98t-2.7-8.26q0-3.36,1.22-5.9t3.52-3.94t5.46-1.4q4.76,0,7.44,2.98z M61.26,32.1q-1.06,1.7-1.06,5.3t1.06,5.3t3.18,1.7t3.18-1.7t1.06-5.3t-1.04-5.3t-3.16-1.7q-2.16,0-3.22,1.7z M97.88,27.96q-2.08,0.8-6.12,0.8q2,0.88,2.96,2.18t0.96,3.26q0,2.04-1.06,3.66t-3.04,2.54t-4.62,0.92q-1.4,0-2.48-0.28q-0.8,0.52-0.8,1.4q0,0.64,0.5,1.02t1.94,0.38l3.24,0q2.36,0,4.14,0.78t2.76,2.16t0.98,3.14q0,3.24-2.78,5.06t-8.02,1.82q-3.76,0-5.94-0.78t-3.06-2.26t-0.88-3.72l5.08,0q0,1.04,0.4,1.66t1.46,0.92t3.06,0.3q2.76,0,3.86-0.68t1.1-1.92q0-1.12-0.84-1.72t-2.48-0.6l-3.12,0q-3.16,0-4.72-1.18t-1.56-2.98q0-1.12,0.66-2.18t1.82-1.78q-1.96-1.08-2.86-2.54t-0.9-3.5q0-2.32,1.14-4.06t3.2-2.68t4.7-0.94q3.28,0.08,5.4-0.56t4.52-2z M84.14,30.98q-0.94,1.02-0.94,2.78q0,1.8,0.94,2.84t2.58,1.04q1.72,0,2.6-1t0.88-2.96q0-3.72-3.52-3.72q-1.6,0-2.54,1.02z M117.04,29.14q2.68,2.98,2.68,8.26q0,3.36-1.22,5.9t-3.52,3.94t-5.42,1.4q-4.76,0-7.46-2.98t-2.7-8.26q0-3.36,1.22-5.9t3.52-3.94t5.46-1.4q4.76,0,7.44,2.98z M106.38,32.1q-1.06,1.7-1.06,5.3t1.06,5.3t3.18,1.7t3.18-1.7t1.06-5.3t-1.04-5.3t-3.16-1.7q-2.16,0-3.22,1.7z M141.78,23.26q3.9,2.94,3.9,10.78q0,7.68-3.82,10.82t-9.78,3.14l-7.92,0l0-27.68l7.24,0q6.48,0,10.38,2.94z M130.04,24.64l0,19.04l2.4,0q3.4,0,5.26-2.1t1.86-7.54q0-3.76-0.94-5.84t-2.5-2.82t-3.8-0.74l-2.28,0z M167.84,39.12l-13.24,0q0.28,2.88,1.56,4.08t3.48,1.2q1.36,0,2.56-0.44t2.6-1.4l2.36,3.2q-3.56,2.88-8.04,2.88q-5,0-7.68-3t-2.68-8.12q0-3.24,1.14-5.82t3.32-4.06t5.18-1.48q4.52,0,7.04,2.84t2.52,7.92q0,0.4-0.12,2.2z M162.32,35.32q0-5.28-3.8-5.28q-1.76,0-2.74,1.3t-1.18,4.22l7.72,0l0-0.24z M186.8,28.72l-2.16,3.24q-2.68-1.68-5.28-1.68q-1.4,0-2.16,0.52t-0.76,1.4q0,0.64,0.34,1.08t1.28,0.84t2.82,0.96q3.36,0.92,5,2.46t1.64,4.22q0,2.12-1.22,3.68t-3.3,2.38t-4.64,0.82q-2.68,0-4.88-0.82t-3.76-2.26l2.8-3.12q2.68,2.08,5.68,2.08q1.6,0,2.54-0.62t0.94-1.7q0-0.84-0.36-1.32t-1.32-0.9t-3-0.98q-3.2-0.88-4.74-2.5t-1.54-4.02q0-1.8,1.04-3.24t2.94-2.26t4.42-0.82q4.48,0,7.68,2.56z M196.92,26.8l0,21.2l-5.68,0l0-21.2l5.68,0z M196.54,16.82q0.98,0.94,0.98,2.38t-0.98,2.38t-2.5,0.94t-2.48-0.94t-0.96-2.38t0.96-2.38t2.48-0.94t2.5,0.94z M221.48,27.96q-2.08,0.8-6.12,0.8q2,0.88,2.96,2.18t0.96,3.26q0,2.04-1.06,3.66t-3.04,2.54t-4.62,0.92q-1.4,0-2.48-0.28q-0.8,0.52-0.8,1.4q0,0.64,0.5,1.02t1.94,0.38l3.24,0q2.36,0,4.14,0.78t2.76,2.16t0.98,3.14q0,3.24-2.78,5.06t-8.02,1.82q-3.76,0-5.94-0.78t-3.06-2.26t-0.88-3.72l5.08,0q0,1.04,0.4,1.66t1.46,0.92t3.06,0.3q2.76,0,3.86-0.68t1.1-1.92q0-1.12-0.84-1.72t-2.48-0.6l-3.12,0q-3.16,0-4.72-1.18t-1.56-2.98q0-1.12,0.66-2.18t1.82-1.78q-1.96-1.08-2.86-2.54t-0.9-3.5q0-2.32,1.14-4.06t3.2-2.68t4.7-0.94q3.28,0.08,5.4-0.56t4.52-2z M207.74,30.98q-0.94,1.02-0.94,2.78q0,1.8,0.94,2.84t2.58,1.04q1.72,0,2.6-1t0.88-2.96q0-3.72-3.52-3.72q-1.6,0-2.54,1.02z M240.48,27.86q1.56,1.7,1.56,4.7l0,15.44l-5.68,0l0-14.48q0-1.72-0.58-2.42t-1.74-0.7q-1.2,0-2.18,0.74t-1.9,2.22l0,14.64l-5.68,0l0-21.2l4.92,0l0.44,2.68q1.32-1.64,2.9-2.48t3.58-0.84q2.8,0,4.36,1.7z M251.84,42.8q1,1,1,2.4t-1,2.42t-2.44,1.02q-1.4,0-2.4-1.02t-1-2.42t1-2.4t2.4-1q1.44,0,2.44,1z M271.8,48l-1.56-6.2l-8.68,0l-1.56,6.2l-6.12,0l8.52-27.68l7.16,0l8.48,27.68l-6.24,0z M262.68,37.44l6.44,0l-3.24-12.76z M286.48,20.32l0,27.68l-5.88,0l0-27.68l5.88,0z" fill="#000000"/></g><g transform="translate(14.92869320602577,162.830907459895) scale(0.7019659052376759)" fill="#bcb601" data-name="container"><path d="M105.9 53c0 3.4-3.8 6.4-4.5 9.6s1.7 7.6.5 10.6-6 4.4-7.8 7.2-1.3 7.6-3.7 10-7.2 1.8-10 3.7-4.1 6.5-7.2 7.8-7.3-1.1-10.6-.5-6.2 4.5-9.6 4.5-6.4-3.8-9.7-4.5-7.6 1.7-10.6.5-4.4-6-7.2-7.8-7.6-1.3-10-3.7-1.8-7.2-3.7-10-6.5-4-7.8-7.2 1.1-7.3.5-10.6S0 56.4 0 53s3.8-6.4 4.5-9.7-1.8-7.5-.5-10.6 6-4.4 7.8-7.2 1.3-7.6 3.7-10 7.2-1.8 10-3.7 4.1-6.5 7.2-7.8 7.3 1.1 10.6.5S49.6 0 53 0s6.4 3.8 9.7 4.5 7.5-1.8 10.6-.5 4.4 6 7.2 7.8 7.6 1.3 10 3.7 1.8 7.2 3.7 10 6.5 4.1 7.8 7.2-1.1 7.3-.5 10.6 4.4 6.3 4.4 9.7z" xmlns="http://www.w3.org/2000/svg"/></g><g transform="translate(25.66105228223278,173.53591813552876) scale(0.8265206778377076)" fill="#ffffff" data-name="icon">
    <title>1</title><path d="M19.14,21.72a1,1,0,0,0,1.25-.53A22.87,22.87,0,0,1,46.91,7.61a1,1,0,0,0,.46-1.87A24.8,24.8,0,0,0,18.61,20.47,1,1,0,0,0,19.14,21.72Z"/><path d="M44.86,42.27a1,1,0,0,0-1.25.54A22.87,22.87,0,0,1,17.09,56.39a1,1,0,0,0-.46,1.87c11.55,3,24.48-3.57,28.76-14.73A1,1,0,0,0,44.86,42.27Z"/><path d="M20.83,45.46a1,1,0,0,0,.36-1.85A22.87,22.87,0,0,1,7.61,17.09a1,1,0,0,0-1.87-.46C2.68,28.24,9.43,41.51,20.83,45.46Z"/><path d="M56.26,30.24A24.71,24.71,0,0,0,43.53,18.61a1,1,0,0,0-.72,1.78A22.88,22.88,0,0,1,56.39,46.91a1,1,0,0,0,1.87.46A24.74,24.74,0,0,0,56.26,30.24Z"/><path d="M26.74,39.66H37.26a4.36,4.36,0,0,0,4.35-4.35c0-.06,0-5.67,0-5.72v-2.8a2.45,2.45,0,0,0-2.45-2.45H36.92V22.83a1,1,0,0,0-1.93,0v1.51H29V22.83a1,1,0,0,0-1.93,0v1.51H24.84a2.45,2.45,0,0,0-2.45,2.45v8.52A4.35,4.35,0,0,0,26.74,39.66Zm10.52-1.93H26.74a2.42,2.42,0,0,1-2.42-2.42V30.58H39.68v4.73A2.42,2.42,0,0,1,37.26,37.73ZM24.84,26.27h2.24a1,1,0,1,0,1.93,0c-.09-.11,6,0,6,0a1,1,0,1,0,1.93,0h2.24a.52.52,0,0,1,.52.52v1.86H24.32V26.79A.52.52,0,0,1,24.84,26.27Z"/><polygon points="32.46 33.61 32 32.21 31.54 33.61 30.07 33.61 31.26 34.48 30.8 35.88 32 35.02 33.2 35.88 32.74 34.48 33.93 33.61 32.46 33.61"/><polygon points="57.14 49.59 56.48 49.94 56.13 49.28 55.28 49.73 55.63 50.39 54.97 50.74 55.41 51.59 56.08 51.24 56.43 51.9 57.28 51.45 56.93 50.79 57.59 50.44 57.14 49.59"/><polygon points="14.29 55.29 13.62 55.63 13.28 54.97 12.42 55.4 12.76 56.07 12.1 56.41 12.53 57.27 13.2 56.93 13.54 57.59 14.4 57.16 14.06 56.49 14.72 56.15 14.29 55.29"/><polygon points="6.45 14.32 7.12 13.98 7.46 14.64 8.32 14.21 7.98 13.54 8.64 13.2 8.21 12.34 7.54 12.68 7.2 12.02 6.34 12.45 6.68 13.12 6.01 13.46 6.45 14.32"/><polygon points="49.71 8.94 50.38 8.6 50.72 9.27 51.58 8.83 51.24 8.16 51.9 7.82 51.47 6.96 50.8 7.3 50.46 6.64 49.6 7.08 49.94 7.74 49.27 8.09 49.71 8.94"/>
    </g><g transform="translate(112.63716842242556,163.78409460323752) scale(1.1317470099201385)" fill="url(#gradient-15)" data-name="business_name"><path d="M1.44,48l5-28.4l-4,0l0.64-3.6l12,0l-0.64,3.6l-4,0l-5,28.4l-4,0z M11.84,48l5.64-32l4,0l-5.64,32l-4,0z M22.4,31.16c1.96-11.16,2.76-15.56,8.36-15.56c4.12,0,4.8,2.52,4,8.56l-3.72,0c0.6-4.36,0.36-5.36-0.84-5.36c-1.84,0-2.2,1.96-4.04,12.36c-2.04,11.56-2.32,13.24-0.48,13.24c1.32,0,1.88-1,2.88-6.16l3.76,0c-1.56,7.4-3.04,10.16-7.36,10.16c-5.6,0-4.8-4.44-2.56-17.24z M33.4,48l5.64-32l4,0l-2.24,12.68l6.24-12.68l4,0l-7.48,15.2l1.84,16.8l-4,0l-1.52-14l-2.48,14l-4,0z M47.8,48l5.64-32l9.2,0l-0.56,3.2l-5.2,0l-1.84,10.4l4.4,0l-0.56,3.2l-4.4,0l-1.96,11.2l5.2,0l-0.72,4l-9.2,0z M62.2,48l5-28.4l-4,0l0.64-3.6l12,0l-0.64,3.6l-4,0l-5,28.4l-4,0z M72.6,48l5.64-32l4,0l-5.64,32l-4,0z M80.6,48l5.64-32l3.6,0l1.8,19.6l0-0.4l3.4-19.2l4,0l-5.64,32l-3.6,0l-2.12-17.6l-0.04,0.4l-3.04,17.2l-4,0z M99.96,31.16c1.96-11.16,2.76-15.56,8.76-15.56c4.56,0,5.2,2.52,4.4,8.56l-3.72,0c0.6-4.36,0.36-5.36-1.24-5.36c-2.24,0-2.6,1.96-4.44,12.36c-2.04,11.56-2.32,13.24-0.08,13.24c2.12,0,2.52-1.52,4-10l-2.64,0l0.56-3.2l6.4,0l-0.28,1.56c-1.96,11.2-2.76,15.64-8.76,15.64s-5.2-4.44-2.96-17.24z  M121,48l5.64-32l6.48,0c4.12,0,4.76,2.52,4,8.56l-0.2,1.28c-1.4,6.04-2.92,8.56-7.04,8.56l-2.48,0l-2.4,13.6l-4,0z M127.96,31.2l2.48,0c1.2,0,1.8-1,2.76-5.36l0.2-1.28c0.6-4.36,0.36-5.36-0.84-5.36l-2.48,0z M135.8,48l5.64-32l4,0l-4.92,28l5.2,0l-0.72,4l-9.2,0z M147.4,48l2.96-16.8c1.96-11.16,2.76-15.56,8.76-15.56s5.2,4.4,3.24,15.56l-2.96,16.8l-4,0l1.64-9.2l-4,0l-1.64,9.2l-4,0z M153.6,35.6l4,0l0.76-4.4c1.84-10.4,2.16-12.36,0.16-12.36s-2.32,1.96-4.16,12.36z M165.8,48l5-28.4l-4,0l0.64-3.6l12,0l-0.64,3.6l-4,0l-5,28.4l-4,0z M176.2,48l5.64-32l8.4,0l-0.56,3.2l-4.4,0l-2.12,12l3.6,0l-0.56,3.2l-3.6,0l-2.4,13.6l-4,0z M189.96,31.16c1.96-11.16,3-15.56,9-15.56s5.44,4.4,3.48,15.56c-2.24,12.8-3.28,17.24-9.28,17.24s-5.44-4.44-3.2-17.24z M193.88,44.4c2.24,0,2.52-1.68,4.56-13.24c1.84-10.4,2.2-12.36-0.04-12.36s-2.6,1.96-4.44,12.36c-2.04,11.56-2.32,13.24-0.08,13.24z M203.08,48l5.64-32l6.48,0c4.12,0,5.08,2.52,4.24,7.36c-0.8,4.36-1.76,6.84-3.2,8.04l-0.04,0.24c0.96,0.36,0.96,2.24,0.56,6.92l-0.88,9.44l-4,0l1.16-9.44c0.56-4.76,0-5.76-1.2-5.76l-2.08,0l-2.68,15.2l-4,0z M210.32,29.6l2.48,0c1.4,0,2.04-1.4,2.92-6.24c0.52-3.16,0.12-4.16-1.08-4.16l-2.48,0z M219.08,48l5.64-32l3.6,0l0.68,20l0.4,0l7.72-20l3.6,0l-5.64,32l-4,0l2.8-16l-5.64,16l-2.4,0l0.04-16l-2.8,16l-4,0z"/></g></svg>